<svg xmlns="http://www.w3.org/2000/svg" width="63px" height="155.178px" viewBox="0 0 63 155.178">
<g>
	<polygon fill="#F0F0F0" points="0,63.004 0,92.173 63,155.178 63,126.011 	"/>
	<polygon fill="#C7C7C7" points="0,92.171 19.079,82.171 14.581,77.589 0,77.589 	"/>
	<polygon fill="#F0F0F0" points="0,92.171 0,63.003 63,0 63,29.167 	"/>
	<g>
		<path fill="#6C38A4" d="M10.427,61.999L9.73,62.694c-1.74,1.738-1.918,4.129-0.437,5.612c1.799,1.8,4.101,1.081,5.221-0.038
			l1.089-1.088l0.869,0.871l-1.088,1.087c-2.121,2.119-5.181,2.211-7.157,0.232c-1.68-1.681-1.945-4.972,0.525-7.438l0.805-0.804
			L10.427,61.999z"/>
		<path fill="#6C38A4" d="M17.181,65.607L19.792,63c0.903-0.902,0.977-1.569,0.375-2.172c-1.414-1.415-5.185,2.47-7.238,0.413
			c-1.127-1.128-0.847-2.632,0.35-3.827l2.427-2.424l0.868,0.871l-2.566,2.564c-0.566,0.565-0.639,1.21-0.105,1.744
			c1.274,1.275,5.105-2.55,7.209-0.442c1.106,1.107,1.086,2.61-0.264,3.958l-2.797,2.793L17.181,65.607z"/>
		<path fill="#6C38A4" d="M23.33,59.469l2.611-2.608c0.902-0.902,0.977-1.568,0.373-2.172c-1.412-1.414-5.183,2.471-7.238,0.413
			c-1.127-1.127-0.847-2.631,0.352-3.826l2.426-2.425l0.869,0.871l-2.567,2.564c-0.566,0.564-0.639,1.211-0.104,1.745
			c1.273,1.275,5.104-2.55,7.207-0.443c1.107,1.107,1.086,2.61-0.262,3.958l-2.797,2.793L23.33,59.469z"/>
		<path fill="#6C38A4" d="M30.52,54.026l-6.915-6.923l1.926-1.924c2.156-2.151,5.333-2.125,7.19-0.266
			c1.857,1.858,1.879,5.037-0.275,7.188l-0.907,0.901l-0.87-0.869l0.997-0.989c1.423-1.424,1.45-3.703-0.01-5.167
			c-1.522-1.523-3.819-1.363-5.537,0.354l-0.621,0.62l6.046,6.053L30.52,54.026z"/>
		<path fill="#6C38A4" d="M37.518,47.039l-4.387-4.391c-1.638-1.643-1.526-3.771-0.047-5.249c1.48-1.479,3.607-1.588,5.248,0.054
			l4.387,4.392l-1.023,1.021l-3.141-3.145l-3.158,3.158l-0.869-0.869l3.156-3.159l-0.434-0.435c-1.086-1.088-2.359-1.08-3.297-0.146
			c-0.936,0.936-0.945,2.21,0.143,3.297l4.445,4.451L37.518,47.039z"/>
	</g>
	<g>
		<rect x="45.04" y="27.898" fill="#FF83FF" width="0" height="0.005"/>
		<polygon fill="#FF83FF" points="45.042,27.902 45.042,27.902 45.042,27.902 		"/>
		<polygon fill="#FF83FF" points="45.042,27.902 45.136,32.614 49.87,32.522 45.045,27.899 45.042,27.902 		"/>
		<polygon fill="#D2ACFF" points="45.042,27.902 45.042,27.902 45.042,27.902 		"/>
		<polygon fill="#6C38A4" points="45.041,27.902 45.038,27.899 42.63,25.583 40.306,27.995 42.726,30.315 43.198,29.821 		"/>
		<polygon fill="#FF3ABD" points="47.549,34.926 49.87,32.522 49.87,32.522 45.136,32.614 		"/>
		<polygon fill="#B36AFF" points="45.041,27.902 43.198,29.821 42.723,30.315 45.136,32.614 45.042,27.902 45.042,27.902 
			45.042,27.902 45.042,27.902 45.045,27.899 49.68,23.092 44.942,23.184 42.63,25.583 45.038,27.899 45.041,27.902 		"/>
		<polygon fill="#FF83FF" points="50.689,32.507 50.689,32.507 50.598,27.801 50.598,27.801 50.598,27.801 45.892,27.892 		"/>
		<polygon fill="#D2ACFF" points="50.689,32.507 50.689,32.507 50.679,32.515 50.68,32.515 50.689,32.507 		"/>
		<polygon fill="#6C38A4" points="50.689,32.507 53.091,34.849 53.097,34.855 55.42,32.444 53.002,30.125 		"/>
		<polygon fill="#FF3ABD" points="45.892,27.892 50.598,27.801 48.176,25.489 		"/>
		<polygon fill="#B36AFF" points="50.68,32.515 46.044,37.343 50.782,37.251 53.097,34.855 53.091,34.849 50.689,32.507 		"/>
		<polygon fill="#B36AFF" points="50.689,32.507 53.002,30.125 53.002,30.125 50.598,27.801 50.689,32.507 		"/>
	</g>
	<g>
		<path fill="#6C38A4" d="M15.205,95.709c0.036-0.055,0.037-0.091-0.009-0.137l-2.012-2.024c-0.046-0.045-0.099-0.062-0.153-0.025
			l-1.914,1.105c-0.1,0.047-0.154,0.026-0.209-0.028l-0.713-0.718c-0.054-0.053-0.044-0.116,0.028-0.152
			c1.36-0.811,6.101-3.43,7.688-4.248c0.074-0.036,0.145-0.037,0.2,0.019l1.28,1.29c0.064,0.062,0.054,0.126,0.017,0.197
			c-0.955,1.745-3.767,6.597-4.367,7.59c-0.036,0.072-0.1,0.08-0.154,0.026l-0.803-0.808c-0.063-0.064-0.082-0.117-0.026-0.208
			L15.205,95.709z M15.733,94.733c0.046,0.045,0.082,0.045,0.128,0c0.409-0.641,1.609-2.611,2.236-3.668
			c0.037-0.055,0.009-0.1-0.108-0.217c-0.118-0.119-0.163-0.146-0.217-0.109c-1.077,0.604-3.074,1.773-3.716,2.18
			c-0.045,0.045-0.045,0.08-0.001,0.125L15.733,94.733z"/>
		<path fill="#6C38A4" d="M21.415,103.337c-0.055,0.091-0.092,0.144,0.016,0.254c0.119,0.118,0.154,0.116,0.282,0.027
			c1.088-0.74,4.652-3.325,5.94-4.336c0.082-0.062,0.154-0.025,0.218,0.037l0.712,0.719c0.054,0.053,0.018,0.108-0.027,0.152
			c-0.935,0.713-5.208,3.695-7.03,4.875c-0.099,0.062-0.164,0.053-0.234-0.018l-1.3-1.308c-0.062-0.065-0.062-0.138-0.017-0.201
			c0.472-0.775,2.708-4.009,3.991-5.787c0.055-0.073,0.028-0.116-0.025-0.173c-0.064-0.063-0.109-0.09-0.182-0.037
			c-1.769,1.289-4.953,3.478-5.776,3.975c-0.101,0.062-0.146,0.054-0.218-0.02l-1.363-1.371c-0.062-0.063-0.061-0.135-0.017-0.199
			c1.228-1.814,4.563-6.447,4.999-6.971c0.063-0.062,0.1-0.062,0.164-0.001l0.739,0.745c0.055,0.055,0.037,0.09-0.018,0.164
			c-1.026,1.272-3.635,4.855-4.353,5.951c-0.073,0.107-0.073,0.162,0.026,0.262s0.153,0.1,0.262,0.027
			c1.043-0.658,4.263-2.846,5.912-4.019c0.056-0.054,0.128-0.054,0.181,0.001l1.156,1.162c0.054,0.055,0.053,0.127,0,0.181
			C24.26,99.063,22.105,102.216,21.415,103.337z"/>
		<path fill="#6C38A4" d="M27.883,108.466c0.036-0.055,0.036-0.09-0.009-0.136l-2.011-2.025c-0.044-0.045-0.1-0.064-0.154-0.026
			l-1.913,1.106c-0.1,0.046-0.154,0.025-0.209-0.028l-0.712-0.718c-0.053-0.054-0.044-0.117,0.028-0.152
			c1.36-0.812,6.101-3.429,7.688-4.248c0.073-0.036,0.146-0.037,0.2,0.019l1.279,1.289c0.063,0.062,0.054,0.127,0.019,0.198
			c-0.955,1.745-3.767,6.596-4.368,7.59c-0.037,0.071-0.1,0.08-0.155,0.026l-0.801-0.807c-0.063-0.064-0.082-0.119-0.027-0.209
			L27.883,108.466z M28.41,107.488c0.046,0.048,0.083,0.048,0.127,0.001c0.41-0.641,1.61-2.609,2.237-3.666
			c0.037-0.055,0.011-0.101-0.108-0.218c-0.117-0.118-0.162-0.146-0.215-0.11c-1.08,0.604-3.076,1.773-3.718,2.18
			c-0.046,0.044-0.046,0.081-0.001,0.126L28.41,107.488z"/>
		<path fill="#6C38A4" d="M32.757,111.845c0.01-0.045-0.009-0.099-0.035-0.145l-0.849-0.854c-0.037-0.036-0.072-0.036-0.108,0.001
			l-2.279,2.264c-0.055,0.054-0.127,0.055-0.181,0l-0.704-0.708c-0.055-0.055-0.054-0.127,0-0.182l5.993-5.953
			c0.055-0.056,0.127-0.056,0.181-0.001l1.669,1.681c1.299,1.306,1.395,2.42,0.196,3.61c-0.917,0.911-1.669,1.189-2.728,0.834
			c-0.026-0.01-0.107-0.001-0.116,0.045l-1.009,3.979c-0.018,0.09-0.091,0.108-0.145,0.053l-0.875-0.88
			c-0.053-0.054-0.045-0.099-0.027-0.188L32.757,111.845z M35.592,110.777c0.973-0.967,0.919-1.437-0.082-2.444l-0.551-0.555
			c-0.035-0.035-0.071-0.035-0.108,0l-2.324,2.309c-0.036,0.037-0.036,0.073,0,0.109l0.552,0.555
			C34.043,111.722,34.722,111.643,35.592,110.777z"/>
		<path fill="#6C38A4" d="M42.195,113.735c1.724,1.734,0.333,3.784-1.029,5.137c-1.361,1.354-3.42,2.731-5.145,0.998l-2.227-2.242
			c-0.054-0.055-0.055-0.127,0-0.182l5.992-5.954c0.055-0.054,0.126-0.054,0.181,0L42.195,113.735z M41.389,114.249l-1.235-1.245
			c-0.036-0.036-0.072-0.035-0.108,0.001l-4.73,4.7c-0.045,0.044-0.047,0.062-0.01,0.1l1.256,1.261
			c1.027,1.034,2.55,0.045,3.748-1.146C41.471,116.764,42.426,115.293,41.389,114.249z"/>
		<path fill="#6C38A4" d="M45.539,117.28c0.055-0.054,0.127-0.054,0.182-0.001l2.949,2.97c0.055,0.055,0.054,0.128,0,0.182
			l-0.563,0.56c-0.054,0.055-0.127,0.054-0.182-0.001l-2.101-2.114c-0.037-0.038-0.073-0.037-0.108-0.001l-1.789,1.776
			c-0.036,0.037-0.036,0.073-0.001,0.109l1.984,1.997c0.055,0.054,0.056,0.127,0.002,0.182l-0.51,0.505
			c-0.055,0.054-0.128,0.053-0.181-0.001l-1.985-1.996c-0.037-0.037-0.072-0.037-0.108-0.001l-1.988,1.976
			c-0.035,0.036-0.036,0.073-0.001,0.109l2.265,2.278c0.054,0.054,0.054,0.126-0.001,0.181l-0.562,0.558
			c-0.054,0.055-0.127,0.056-0.181,0.002l-3.112-3.134c-0.055-0.053-0.055-0.126,0-0.181L45.539,117.28z"/>
		<path fill="#6C38A4" d="M52.383,123.987c1.725,1.733,0.333,3.783-1.027,5.138c-1.362,1.354-3.42,2.731-5.145,0.996l-2.229-2.241
			c-0.053-0.054-0.052-0.126,0.003-0.181l5.99-5.956c0.055-0.053,0.127-0.054,0.182,0.001L52.383,123.987z M51.578,124.5
			l-1.236-1.243c-0.037-0.036-0.072-0.037-0.109,0l-4.729,4.7c-0.045,0.044-0.047,0.062-0.01,0.1l1.254,1.262
			c1.027,1.034,2.552,0.044,3.749-1.147C51.659,127.016,52.614,125.544,51.578,124.5z"/>
	</g>
</g>
</svg>
