<svg xmlns="http://www.w3.org/2000/svg" width="63px" height="155.178px" viewBox="0 0 63 155.178">
<g>
	<polygon fill="#F0F0F0" points="0,63.004 0,92.173 63,155.178 63,126.011 	"/>
	<polygon fill="#C7C7C7" points="0,92.171 19.079,82.171 14.581,77.589 0,77.589 	"/>
	<polygon fill="#F0F0F0" points="0,92.171 0,63.003 63,0 63,29.167 	"/>
	<g>
		<path fill="#6C38A4" d="M10.427,61.999L9.73,62.694c-1.74,1.738-1.918,4.129-0.437,5.612c1.799,1.8,4.101,1.081,5.221-0.038
			l1.089-1.088l0.869,0.871l-1.088,1.087c-2.121,2.119-5.181,2.211-7.157,0.232c-1.68-1.681-1.945-4.972,0.525-7.438l0.805-0.804
			L10.427,61.999z"/>
		<path fill="#6C38A4" d="M17.181,65.607L19.792,63c0.903-0.902,0.977-1.569,0.375-2.172c-1.414-1.415-5.185,2.47-7.238,0.413
			c-1.127-1.128-0.847-2.632,0.35-3.827l2.427-2.424l0.868,0.871l-2.566,2.564c-0.566,0.565-0.639,1.21-0.105,1.744
			c1.274,1.275,5.105-2.55,7.209-0.442c1.106,1.107,1.086,2.61-0.264,3.958l-2.797,2.793L17.181,65.607z"/>
		<path fill="#6C38A4" d="M23.33,59.469l2.611-2.608c0.902-0.902,0.977-1.568,0.373-2.172c-1.412-1.414-5.183,2.471-7.238,0.413
			c-1.127-1.127-0.847-2.631,0.352-3.826l2.426-2.425l0.869,0.871l-2.567,2.564c-0.566,0.564-0.639,1.211-0.104,1.745
			c1.273,1.275,5.104-2.55,7.207-0.443c1.107,1.107,1.086,2.61-0.262,3.958l-2.797,2.793L23.33,59.469z"/>
		<path fill="#6C38A4" d="M30.52,54.026l-6.915-6.923l1.926-1.924c2.156-2.151,5.333-2.125,7.19-0.266
			c1.857,1.858,1.879,5.037-0.275,7.188l-0.907,0.901l-0.87-0.869l0.997-0.989c1.423-1.424,1.45-3.703-0.01-5.167
			c-1.522-1.523-3.819-1.363-5.537,0.354l-0.621,0.62l6.046,6.053L30.52,54.026z"/>
		<path fill="#6C38A4" d="M37.518,47.039l-4.387-4.391c-1.638-1.643-1.526-3.771-0.047-5.249c1.48-1.479,3.607-1.588,5.248,0.054
			l4.387,4.392l-1.023,1.021l-3.141-3.145l-3.158,3.158l-0.869-0.869l3.156-3.159l-0.434-0.435c-1.086-1.088-2.359-1.08-3.297-0.146
			c-0.936,0.936-0.945,2.21,0.143,3.297l4.445,4.451L37.518,47.039z"/>
	</g>
	<g>
		<rect x="45.04" y="27.898" fill="#FF83FF" width="0" height="0.005"/>
		<polygon fill="#FF83FF" points="45.042,27.902 45.042,27.902 45.042,27.902 		"/>
		<polygon fill="#FF83FF" points="45.042,27.902 45.136,32.614 49.87,32.522 45.045,27.899 45.042,27.902 		"/>
		<polygon fill="#D2ACFF" points="45.042,27.902 45.042,27.902 45.042,27.902 		"/>
		<polygon fill="#6C38A4" points="45.041,27.902 45.038,27.899 42.63,25.583 40.306,27.995 42.726,30.315 43.198,29.821 		"/>
		<polygon fill="#FF3ABD" points="47.549,34.926 49.87,32.522 49.87,32.522 45.136,32.614 		"/>
		<polygon fill="#B36AFF" points="45.041,27.902 43.198,29.821 42.723,30.315 45.136,32.614 45.042,27.902 45.042,27.902 
			45.042,27.902 45.042,27.902 45.045,27.899 49.68,23.092 44.942,23.184 42.63,25.583 45.038,27.899 45.041,27.902 		"/>
		<polygon fill="#FF83FF" points="50.689,32.507 50.689,32.507 50.598,27.801 50.598,27.801 50.598,27.801 45.892,27.892 		"/>
		<polygon fill="#D2ACFF" points="50.689,32.507 50.689,32.507 50.679,32.515 50.68,32.515 50.689,32.507 		"/>
		<polygon fill="#6C38A4" points="50.689,32.507 53.091,34.849 53.097,34.855 55.42,32.444 53.002,30.125 		"/>
		<polygon fill="#FF3ABD" points="45.892,27.892 50.598,27.801 48.176,25.489 		"/>
		<polygon fill="#B36AFF" points="50.68,32.515 46.044,37.343 50.782,37.251 53.097,34.855 53.091,34.849 50.689,32.507 		"/>
		<polygon fill="#B36AFF" points="50.689,32.507 53.002,30.125 53.002,30.125 50.598,27.801 50.689,32.507 		"/>
	</g>
	<g>
		<path fill="#6C38A4" d="M14.991,99.567c-0.087-0.086-0.06-0.154,0-0.291l3.143-7.292c0.09-0.184,0.128-0.283,0.061-0.35
			c-0.058-0.057-0.09-0.048-0.253,0.115l-5.242,5.331c-0.055,0.06-0.133,0.06-0.192,0l-0.72-0.722c-0.06-0.059-0.06-0.138,0-0.194
			l6.438-6.432c0.058-0.06,0.138-0.057,0.194-0.001l1.277,1.277c0.068,0.071,0.066,0.128,0.019,0.255l-3.095,7.184
			c-0.079,0.194-0.068,0.244-0.021,0.292c0.049,0.05,0.09,0.05,0.167-0.027l5.18-5.254c0.06-0.058,0.136-0.06,0.196,0.001
			l0.74,0.742c0.059,0.058,0.059,0.135-0.003,0.194l-6.436,6.432c-0.059,0.056-0.136,0.058-0.195-0.002L14.991,99.567z"/>
		<path fill="#6C38A4" d="M22.638,106.189c-0.877,0.096-1.569-0.343-2.457-1.231c-0.896-0.896-1.305-1.561-1.206-2.438
			c0.106-0.905,0.938-2.182,2.175-3.421c1.238-1.236,2.516-2.064,3.423-2.173c0.878-0.096,1.57,0.344,2.457,1.23
			c0.897,0.898,1.306,1.561,1.207,2.438c-0.105,0.907-0.936,2.184-2.175,3.422C24.822,105.254,23.547,106.083,22.638,106.189z
			 M20.145,102.813c-0.05,0.44,0.204,0.752,0.817,1.366c0.635,0.634,0.946,0.888,1.387,0.84c0.593-0.069,1.695-0.936,2.738-1.979
			c1.041-1.041,1.913-2.144,1.979-2.737c0.05-0.438-0.203-0.749-0.817-1.366c-0.632-0.633-0.944-0.888-1.385-0.839
			c-0.594,0.069-1.695,0.936-2.739,1.978C21.081,101.118,20.211,102.219,20.145,102.813z"/>
		<path fill="#6C38A4" d="M34.859,106.388c0.059-0.041,0.168-0.03,0.225,0.027l1.384,1.386c0.059,0.058,0.06,0.137,0,0.195
			l-6.438,6.431c-0.059,0.061-0.137,0.061-0.195,0l-0.759-0.759c-0.059-0.06-0.059-0.139-0.003-0.196l5.668-5.585
			c0.088-0.087,0.088-0.104,0.05-0.146c-0.039-0.038-0.088-0.029-0.187,0.03l-5.322,2.747c-0.196,0.096-0.227,0.105-0.333-0.002
			l-0.807-0.808c-0.119-0.119-0.14-0.14-0.04-0.332l2.878-5.216c0.069-0.127,0.078-0.155,0.039-0.194
			c-0.039-0.038-0.078-0.021-0.186,0.088l-5.55,5.622c-0.06,0.059-0.137,0.058-0.192-0.001l-0.764-0.76
			c-0.058-0.058-0.058-0.137,0.002-0.195l6.437-6.431c0.06-0.058,0.138-0.058,0.194,0l1.442,1.443
			c0.061,0.058,0.041,0.137,0.012,0.203l-2.93,5.166c-0.058,0.119-0.065,0.146-0.027,0.186c0.037,0.039,0.078,0.04,0.185-0.028
			L34.859,106.388z"/>
		<path fill="#6C38A4" d="M31.72,116.314c-0.058-0.059-0.055-0.134,0.002-0.192l6.438-6.434c0.061-0.057,0.137-0.059,0.195,0.001
			l0.761,0.761c0.058,0.059,0.058,0.138,0,0.194l-6.438,6.435c-0.061,0.055-0.137,0.057-0.195-0.002L31.72,116.314z"/>
		<path fill="#6C38A4" d="M37.576,122.176c-0.088-0.086-0.059-0.153,0-0.292l3.143-7.289c0.087-0.189,0.126-0.283,0.06-0.354
			c-0.06-0.059-0.088-0.048-0.255,0.118l-5.236,5.328c-0.061,0.059-0.139,0.061-0.195,0.002l-0.724-0.721
			c-0.057-0.061-0.055-0.138,0.003-0.197l6.437-6.43c0.059-0.059,0.137-0.061,0.194-0.002l1.278,1.279
			c0.068,0.067,0.067,0.128,0.017,0.252l-3.094,7.184c-0.076,0.196-0.066,0.246-0.018,0.293c0.049,0.05,0.086,0.05,0.165-0.03
			l5.18-5.249c0.059-0.06,0.137-0.06,0.194,0l0.739,0.739c0.06,0.06,0.06,0.14,0,0.196l-6.437,6.43
			c-0.059,0.059-0.137,0.062-0.194,0.002L37.576,122.176z"/>
		<path fill="#6C38A4" d="M47.157,118.696c0.059-0.058,0.137-0.058,0.196,0l3.186,3.19c0.058,0.059,0.058,0.139,0,0.196
			l-0.604,0.604c-0.06,0.058-0.139,0.06-0.195,0l-2.271-2.272c-0.04-0.039-0.078-0.041-0.116,0.002l-1.922,1.916
			c-0.04,0.04-0.04,0.079,0,0.117l2.145,2.148c0.057,0.057,0.057,0.135-0.002,0.193l-0.547,0.547
			c-0.057,0.059-0.137,0.057-0.194-0.002l-2.144-2.146c-0.039-0.038-0.077-0.037-0.117,0.002l-2.137,2.133
			c-0.039,0.038-0.039,0.076,0,0.119l2.445,2.445c0.06,0.06,0.059,0.137,0.002,0.196l-0.604,0.603c-0.062,0.06-0.139,0.061-0.198,0
			l-3.361-3.365c-0.058-0.059-0.056-0.136,0.002-0.193L47.157,118.696z"/>
		<path fill="#6C38A4" d="M51.948,123.493c0.059-0.057,0.136-0.06,0.195,0l3.187,3.19c0.06,0.06,0.06,0.137,0.001,0.196
			l-0.604,0.602c-0.059,0.061-0.138,0.061-0.196,0.003l-2.271-2.274c-0.038-0.038-0.078-0.038-0.117,0l-1.922,1.919
			c-0.038,0.039-0.039,0.078,0.002,0.119l2.143,2.146c0.058,0.057,0.06,0.135,0,0.194l-0.546,0.546c-0.059,0.06-0.138,0.06-0.196,0
			l-2.143-2.147c-0.039-0.037-0.078-0.038-0.116,0.002l-2.138,2.133c-0.038,0.04-0.038,0.078,0.001,0.117l2.443,2.447
			c0.061,0.061,0.061,0.137,0.002,0.196l-0.606,0.604c-0.057,0.059-0.136,0.058-0.192-0.001l-3.364-3.364
			c-0.058-0.059-0.057-0.137,0.003-0.195L51.948,123.493z"/>
	</g>
</g>
</svg>
